<svg width="266" height="268" viewBox="0 0 266 268" fill="none" xmlns="http://www.w3.org/2000/svg">
<path d="M16.3916 74.1208C16.3916 72.9751 17.0462 71.9302 18.0771 71.4304L30.9436 65.1921C32.079 64.6416 33.4377 64.8631 34.3395 65.7457L79.565 110.013C79.965 110.404 80.4669 110.676 81.0135 110.796L106.908 116.498C107.192 116.56 107.483 116.581 107.773 116.559L134.494 114.572L190.117 102.791C190.569 102.695 190.994 102.496 191.356 102.208L237.53 65.5543C238.501 64.7835 239.847 64.6919 240.913 65.3239L251.132 71.3791C252.04 71.9175 252.597 72.8952 252.597 73.9513V252.584C252.597 254.235 251.259 255.574 249.607 255.574H19.3815C17.7302 255.574 16.3916 254.235 16.3916 252.584V74.1208Z" fill="#AEC6A1"/>
<path d="M240.214 267.552H25.6763C18.9863 267.547 12.572 264.883 7.84153 260.146C3.11103 255.41 0.45097 248.987 0.445312 242.288V83.9461C0.451324 78.5097 2.0022 73.1872 4.91679 68.6006C7.83137 64.0139 11.9893 60.3526 16.9048 58.0442C21.8202 55.7357 27.2902 54.8756 32.6757 55.5643C38.0612 56.253 43.1398 58.462 47.3181 61.9334L89.8326 97.3162C92.4341 99.473 95.7057 100.653 99.0833 100.653H166.786C170.171 100.658 173.451 99.4777 176.058 97.3162L218.573 61.9334C222.751 58.462 227.829 56.253 233.215 55.5643C238.6 54.8756 244.07 55.7357 248.986 58.0442C253.901 60.3526 258.059 64.0139 260.974 68.6006C263.888 73.1872 265.439 78.5097 265.445 83.9461V242.288C265.44 248.987 262.78 255.41 258.049 260.146C253.319 264.883 246.904 267.547 240.214 267.552ZM29.0732 72.3942C27.3581 72.4047 25.6662 72.7918 24.1167 73.5281C22.1202 74.4311 20.4303 75.8977 19.2539 77.7481C18.0775 79.5986 17.4659 81.7526 17.4938 83.9461V242.288C17.4995 244.448 18.3589 246.518 19.8841 248.045C21.4094 249.573 23.4765 250.433 25.6335 250.439H240.214C242.371 250.433 244.438 249.573 245.964 248.045C247.489 246.518 248.348 244.448 248.354 242.288V83.9461C248.35 81.7587 247.725 79.6176 246.552 77.7727C245.378 75.9277 243.705 74.455 241.727 73.5265C239.749 72.5979 237.549 72.2519 235.382 72.5287C233.215 72.8055 231.171 73.6937 229.49 75.0896L208.232 92.781L186.975 110.472C181.302 115.188 174.16 117.769 166.786 117.767H99.0833C91.7173 117.762 84.5843 115.182 78.9156 110.472L36.401 75.0896C34.35 73.3579 31.756 72.4037 29.0732 72.3942Z" fill="#AEC6A1"/>
<path d="M132.945 91.1664C130.89 91.1479 128.911 90.3884 127.369 89.0271C126.472 88.257 105.364 69.7741 105.364 45.772C105.364 21.77 126.472 3.30857 127.369 2.53845C128.92 1.20131 130.899 0.46582 132.945 0.46582C134.992 0.46582 136.97 1.20131 138.521 2.53845C139.419 3.30857 160.526 21.7914 160.526 45.772C160.526 69.7527 139.419 88.257 138.521 89.0271C136.98 90.3884 135 91.1479 132.945 91.1664ZM132.945 21.4491C128.309 27.0752 122.456 36.1028 122.456 45.8149C122.456 55.5269 128.288 64.5545 132.945 70.202C137.603 64.5545 143.435 55.5483 143.435 45.8149C143.435 36.0814 137.603 27.0966 132.945 21.4491Z" fill="#F08080"/>
<path d="M50.8004 177.662C50.1612 177.653 49.5243 177.582 48.899 177.448C46.6931 176.939 44.7793 175.573 43.5776 173.652C42.376 171.731 41.9848 169.411 42.4898 167.201C44.2894 159.324 48.7058 152.292 55.0163 147.255C61.3269 142.219 69.1578 139.476 77.2278 139.476C85.2977 139.476 93.1288 142.219 99.4393 147.255C105.75 152.292 110.166 159.324 111.966 167.201C112.24 168.306 112.292 169.455 112.117 170.58C111.943 171.705 111.546 172.784 110.949 173.753C110.353 174.723 109.57 175.563 108.645 176.226C107.72 176.888 106.673 177.359 105.564 177.611C104.455 177.863 103.307 177.891 102.187 177.693C101.068 177.495 99.9986 177.075 99.0429 176.459C98.0872 175.842 97.2641 175.04 96.6217 174.101C95.9793 173.161 95.5306 172.103 95.3018 170.988C94.3851 166.88 92.0923 163.21 88.8044 160.587C85.5166 157.964 81.4315 156.546 77.2278 156.569C73.0388 156.594 68.9799 158.029 65.705 160.645C62.4301 163.26 60.13 166.904 59.1752 170.988C58.747 172.889 57.6835 174.587 56.1606 175.801C54.6378 177.014 52.7468 177.671 50.8004 177.662V177.662Z" fill="white"/>
<path d="M163.197 178.582C162.564 178.585 161.933 178.513 161.317 178.368C159.111 177.859 157.197 176.493 155.996 174.572C154.794 172.651 154.403 170.331 154.908 168.121C156.707 160.244 161.124 153.212 167.434 148.175C173.745 143.139 181.576 140.396 189.646 140.396C197.716 140.396 205.547 143.139 211.857 148.175C218.168 153.212 222.584 160.244 224.384 168.121C224.658 169.226 224.71 170.375 224.535 171.5C224.36 172.625 223.963 173.704 223.367 174.673C222.771 175.643 221.988 176.483 221.063 177.146C220.138 177.808 219.091 178.279 217.982 178.531C216.873 178.783 215.725 178.811 214.605 178.613C213.486 178.415 212.417 177.995 211.461 177.379C210.505 176.762 209.682 175.96 209.04 175.021C208.397 174.081 207.949 173.023 207.72 171.908C206.803 167.8 204.51 164.13 201.222 161.507C197.935 158.884 193.849 157.466 189.646 157.489C185.454 157.513 181.392 158.947 178.114 161.563C174.835 164.178 172.531 167.822 171.572 171.908C171.144 173.809 170.08 175.507 168.557 176.72C167.034 177.934 165.143 178.591 163.197 178.582V178.582Z" fill="white"/>
<path d="M140.379 228.426L150.207 215.59C150.751 214.651 151.039 213.584 151.04 212.498C151.042 211.411 150.758 210.344 150.216 209.403C149.675 208.461 148.895 207.68 147.956 207.136C147.016 206.592 145.951 206.306 144.866 206.306H120.938C119.853 206.306 118.787 206.592 117.848 207.136C116.909 207.68 116.129 208.461 115.588 209.403C115.046 210.344 114.762 211.411 114.764 212.498C114.765 213.584 115.053 214.651 115.597 215.59L125.425 228.426C126.164 229.763 127.247 230.878 128.562 231.654C129.877 232.431 131.375 232.84 132.902 232.84C134.428 232.84 135.927 232.431 137.242 231.654C138.557 230.878 139.64 229.763 140.379 228.426V228.426Z" fill="white"/>
<rect x="122.036" y="21.3955" width="21.9263" height="53.819" fill="#F08080"/>
</svg>
