<svg width="32" height="32" viewBox="0 0 32 32" fill="none" xmlns="http://www.w3.org/2000/svg">
<path d="M18.7576 22.5272L18.75 22.0302C18.75 19.7675 19.5008 17.68 20.7656 16.0024L20.776 15.9806L20.7779 15.9759L20.7808 15.9721C21.6262 14.8607 22.2435 13.5665 22.5607 12.1578C22.7197 11.4534 22.8021 10.7226 22.8021 9.97087C22.803 4.49027 18.3599 0.0473633 12.8792 0.0473633H6.625C7.4828 0.165663 8.3065 0.392863 9.0818 0.713863C9.9585 1.07736 10.7737 1.56206 11.5036 2.14716C13.7966 3.98286 15.265 6.80497 15.265 9.97087C15.265 12.2638 14.4944 14.3769 13.1973 16.0649L13.1888 16.0829L13.1869 16.0876L13.1841 16.0914C12.3633 17.1886 11.7649 18.461 11.4534 19.8423C11.2944 20.5466 11.2111 21.2775 11.2111 22.0292C11.2111 27.5098 15.6541 31.9527 21.1349 31.9527H27.39C27.39 31.9527 27.3862 31.9527 27.3834 31.9518H31.4771C31.7384 31.9518 31.9505 31.7397 31.9505 31.4784V27.9471C31.9505 27.6859 31.7384 27.4738 31.4771 27.4738H23.7053C21.3308 27.4738 19.3474 25.8 18.8693 23.5686C18.7973 23.2344 18.7595 22.8879 18.7585 22.5319C18.7585 22.53 18.7576 22.5291 18.7576 22.5272Z" fill="#E86BF4"/>
<path d="M20.2297 31.2432C19.357 30.8814 18.5461 30.399 17.8196 29.8169C15.5377 27.9899 14.0762 25.181 14.0762 22.0303C14.0762 19.776 14.8245 17.6974 16.0856 16.0271L16.098 16.0005C16.9469 14.8838 17.568 13.5838 17.8861 12.168C18.0456 11.4605 18.1292 10.7255 18.1292 9.9706C18.1292 4.464 13.6651 0 8.15829 0C8.15639 0 8.15349 0 8.15159 0H0.554688C1.89559 0.0047 3.17469 0.273499 4.34179 0.757799C5.21449 1.1196 6.02539 1.6019 6.75189 2.184C9.03379 4.011 10.4953 6.8199 10.4953 9.9706C10.4953 12.2544 9.72699 14.3596 8.43459 16.0404L8.42409 16.0631C7.59989 17.1656 6.99779 18.4438 6.68539 19.832C6.52589 20.5395 6.44229 21.2745 6.44229 22.0294C6.44229 27.536 10.9064 32 16.4132 32H24.0101C22.6712 31.9943 21.3949 31.7266 20.2297 31.2432Z" fill="#A0C1D4"/>
<path d="M13.3665 29.8169C14.093 30.399 14.904 30.8814 15.7767 31.2432C16.9418 31.7266 18.2181 31.9943 19.5571 32H11.9602C6.4534 32 1.9893 27.536 1.9893 22.0294C1.9893 21.2745 2.0728 20.5395 2.2324 19.832C2.5448 18.4438 3.1468 17.1656 3.9711 16.0631L3.9815 16.0404C5.274 14.3596 6.0422 12.2544 6.0422 9.9706C6.0422 6.8199 4.5808 4.011 2.2988 2.184C1.6855 1.6926 1.0119 1.2722 0.291801 0.9354C0.116101 0.8533 0 0.679001 0 0.485001C0 0.217101 0.217201 0 0.485001 0H3.6986H3.7052C9.212 0 13.6761 4.464 13.6761 9.9706C13.6761 10.7255 13.5926 11.4605 13.433 12.168C13.1149 13.5838 12.4939 14.8838 11.6449 16.0005L11.6326 16.0271C10.3715 17.6974 9.6232 19.776 9.6232 22.0303C9.6232 25.181 11.0846 27.9899 13.3665 29.8169Z" fill="#6CFFBD"/>
</svg>
