<svg width="560" height="561" viewBox="0 0 560 561" fill="none" xmlns="http://www.w3.org/2000/svg">
<path d="M282.993 25.4665L269.393 51.0665L275.393 62.5332C278.726 68.7998 284.859 80.5332 289.126 88.6665L296.993 103.333L308.859 105.067C343.393 109.867 372.193 123.867 395.126 147.067C407.126 159.2 419.659 177.333 425.393 191.2C430.059 202.4 435.526 220.667 436.726 229.6L437.659 236H282.326C148.193 236 126.859 235.733 126.859 234.133C126.859 230 130.993 212.533 134.326 202.8C150.059 156.933 185.126 123.867 232.726 110C239.393 108.133 244.859 106.4 245.259 106.133C245.526 105.867 239.393 93.7332 231.659 79.1998C223.926 64.6665 217.526 52.2665 217.526 51.4665C217.526 50.6665 223.259 39.1998 230.193 26.1332C237.126 12.9332 242.593 1.99981 242.326 1.73314C241.259 0.666475 214.859 5.59981 200.193 9.46648C145.393 23.9998 93.7927 57.1998 59.926 99.7332C34.326 131.867 15.2594 171.333 6.99271 209.333C-0.0739553 242.4 -2.07396 289.2 2.32605 322.933C11.126 391.733 45.2594 453.467 97.3927 494.933C119.926 512.933 150.459 530.267 177.526 540.4C240.193 563.733 325.659 567.467 395.259 549.867C440.593 538.4 482.993 514.667 513.793 483.6L524.059 473.2L489.259 433.333L454.459 393.467L444.993 401.867C417.259 426.667 388.059 441.467 350.859 449.6C338.459 452.267 333.126 452.533 304.859 452.533C276.726 452.533 271.259 452.267 259.393 449.6C203.126 437.333 163.259 408.133 141.526 363.467C135.393 350.8 128.193 329.467 128.193 323.867C128.193 321.333 133.259 321.333 342.859 321.333C460.993 321.333 557.526 321.2 557.659 320.933C558.859 315.867 559.526 277.867 558.726 262.4C555.659 204.133 541.259 158.133 512.459 115.2C475.259 59.7332 417.926 20.7998 352.859 6.66648C336.326 3.06647 313.926 -0.000192013 303.926 -0.000192013H296.459L282.993 25.4665Z" fill="#CD1041"/>
</svg>
