<svg width="25" height="24" viewBox="0 0 25 24" fill="none" xmlns="http://www.w3.org/2000/svg">
<path d="M9.21689 12.8825L8.73206 12.3102L8.73205 12.3103L9.21689 12.8825ZM9.2697 12.8319L8.73534 12.3056L8.73475 12.3062L9.2697 12.8319ZM7.04798 14.7202L6.56315 14.148L6.56314 14.148L7.04798 14.7202ZM6.92917 14.8453L7.54478 15.2737L7.54478 15.2737L6.92917 14.8453ZM18.4425 12.9592L17.9231 13.5003L17.9231 13.5003L18.4425 12.9592ZM16.5914 11.1822L16.072 11.7232L16.072 11.7232L16.5914 11.1822ZM15.904 11.1773L15.3923 10.6291L15.3904 10.6308L15.904 11.1773ZM12.4753 14.3998L12.987 14.9481L12.9889 14.9464L12.4753 14.3998ZM11.7773 14.3846L11.2403 14.9082L11.2414 14.9093L11.7773 14.3846ZM11.7683 14.3754L11.2308 14.8984L11.2313 14.899L11.7683 14.3754ZM11.7193 14.3278L12.2103 13.7609L12.2103 13.7609L11.7193 14.3278ZM10.0489 12.881L10.54 12.3141L10.54 12.3141L10.0489 12.881ZM9.99975 12.8332L10.5374 12.3104L10.5369 12.3098L9.99975 12.8332ZM9.99094 12.8242L10.5281 12.3008L10.5271 12.2998L9.99094 12.8242ZM9.27919 12.8223L8.74589 12.2949L8.74482 12.296L9.27919 12.8223ZM17.0695 6.59983V5.84983C16.6553 5.84983 16.3195 6.18561 16.3195 6.59983H17.0695ZM17.4127 6.59983H18.1627C18.1627 6.18561 17.8269 5.84983 17.4127 5.84983V6.59983ZM17.4127 6.89045V7.64045C17.8269 7.64045 18.1627 7.30466 18.1627 6.89045H17.4127ZM17.0695 6.89045H16.3195C16.3195 7.30466 16.6553 7.64045 17.0695 7.64045V6.89045ZM2.39999 6.00002V18H3.89999V6.00002H2.39999ZM6.74999 22.35H18.75V20.85H6.74999V22.35ZM23.1 18V6.00002H21.6V18H23.1ZM18.75 1.65002H6.74999V3.15002H18.75V1.65002ZM23.1 6.00002C23.1 3.59759 21.1524 1.65002 18.75 1.65002V3.15002C20.324 3.15002 21.6 4.42601 21.6 6.00002H23.1ZM18.75 22.35C21.1524 22.35 23.1 20.4025 23.1 18H21.6C21.6 19.574 20.324 20.85 18.75 20.85V22.35ZM2.39999 18C2.39999 20.4025 4.34756 22.35 6.74999 22.35V20.85C5.17598 20.85 3.89999 19.574 3.89999 18H2.39999ZM3.89999 6.00002C3.89999 4.42601 5.17598 3.15002 6.74999 3.15002V1.65002C4.34756 1.65002 2.39999 3.59759 2.39999 6.00002H3.89999ZM9.70172 13.4547C9.7508 13.4131 9.7916 13.3708 9.80465 13.3576L8.73475 12.3062C8.73023 12.3108 8.72745 12.3137 8.7249 12.3162C8.72252 12.3186 8.72139 12.3197 8.72101 12.3201C8.7201 12.321 8.72429 12.3168 8.73206 12.3102L9.70172 13.4547ZM7.53282 15.2924L9.70173 13.4547L8.73205 12.3103L6.56315 14.148L7.53282 15.2924ZM7.54478 15.2737C7.53364 15.2897 7.52491 15.2989 7.52264 15.3013C7.52062 15.3034 7.52277 15.3009 7.53283 15.2924L6.56314 14.148C6.49756 14.2035 6.40011 14.2925 6.31357 14.4169L7.54478 15.2737ZM7.49999 15.4165C7.49999 15.3652 7.51572 15.3154 7.54478 15.2737L6.31357 14.4169C6.11011 14.7092 5.99999 15.0579 5.99999 15.4165H7.49999ZM7.49999 17.5V15.4165H5.99999V17.5H7.49999ZM7.24999 17.25C7.38806 17.25 7.49999 17.362 7.49999 17.5H5.99999C5.99999 18.1904 6.55964 18.75 7.24999 18.75V17.25ZM18.25 17.25H7.24999V18.75H18.25V17.25ZM18 17.5C18 17.362 18.1119 17.25 18.25 17.25V18.75C18.9403 18.75 19.5 18.1904 19.5 17.5H18ZM18 13.6806V17.5H19.5V13.6806H18ZM17.9231 13.5003C17.9722 13.5474 18 13.6126 18 13.6806H19.5C19.5 13.2041 19.3057 12.7482 18.9619 12.4182L17.9231 13.5003ZM16.072 11.7232L17.9231 13.5003L18.9619 12.4182L17.1108 10.6411L16.072 11.7232ZM16.4157 11.7256C16.3187 11.8162 16.1678 11.8152 16.072 11.7232L17.1108 10.6411C16.632 10.1815 15.8775 10.1762 15.3923 10.6291L16.4157 11.7256ZM12.9889 14.9464L16.4176 11.7239L15.3904 10.6308L11.9616 13.8533L12.9889 14.9464ZM11.2414 14.9093C11.7118 15.3897 12.4869 15.4149 12.987 14.9481L11.9635 13.8516C12.0638 13.758 12.2186 13.7633 12.3132 13.8599L11.2414 14.9093ZM11.2313 14.899L11.2403 14.9082L12.3142 13.861L12.3052 13.8518L11.2313 14.899ZM11.2282 14.8947C11.221 14.8885 11.2171 14.8846 11.218 14.8854C11.2184 14.8858 11.2194 14.8868 11.2216 14.8891C11.224 14.8915 11.2266 14.8941 11.2308 14.8984L12.3057 13.8523C12.2936 13.8398 12.2557 13.8002 12.2103 13.7609L11.2282 14.8947ZM9.55791 13.4479L11.2282 14.8947L12.2103 13.7609L10.54 12.3141L9.55791 13.4479ZM9.46208 13.3561C9.47426 13.3687 9.51233 13.4085 9.55791 13.4479L10.54 12.3141C10.5472 12.3204 10.5511 12.3243 10.5502 12.3234C10.5499 12.3231 10.5488 12.322 10.5466 12.3198C10.5442 12.3174 10.5416 12.3147 10.5374 12.3104L9.46208 13.3561ZM9.45379 13.3476L9.46259 13.3567L10.5369 12.3098L10.5281 12.3008L9.45379 13.3476ZM9.81248 13.3496C9.71344 13.4498 9.55343 13.4495 9.4548 13.3487L10.5271 12.2998C10.0392 11.801 9.23582 11.7995 8.74589 12.2949L9.81248 13.3496ZM9.80406 13.3582L9.81355 13.3485L8.74482 12.296L8.73534 12.3056L9.80406 13.3582ZM17.0695 7.34983H17.4127V5.84983H17.0695V7.34983ZM16.6627 6.59983V6.89045H18.1627V6.59983H16.6627ZM17.4127 6.14045H17.0695V7.64045H17.4127V6.14045ZM17.8195 6.89045V6.59983H16.3195V6.89045H17.8195Z" fill="black"/>
</svg>
